<?xml version="1.0" encoding="UTF-8"?>
<!DOCTYPE svg PUBLIC "-//W3C//DTD SVG 1.1//EN" "http://www.w3.org/Graphics/SVG/1.1/DTD/svg11.dtd">
<svg xmlns="http://www.w3.org/2000/svg" version="1.1" width="286px" height="64px" style="shape-rendering:geometricPrecision; text-rendering:geometricPrecision; image-rendering:optimizeQuality; fill-rule:evenodd; clip-rule:evenodd" xmlns:xlink="http://www.w3.org/1999/xlink">
<g><path style="opacity:0.895" fill="#45eb6b" d="M 37.5,-0.5 C 39.1667,-0.5 40.8333,-0.5 42.5,-0.5C 58.4044,3.25929 64.9044,13.2593 62,29.5C 58.9607,37.537 53.2941,42.8703 45,45.5C 41.9973,56.0103 35.1639,62.0103 24.5,63.5C 23.1667,63.5 21.8333,63.5 20.5,63.5C 8.08447,61.3353 1.08447,54.002 -0.5,41.5C -0.5,40.8333 -0.5,40.1667 -0.5,39.5C 1.00889,28.1567 7.34222,21.1567 18.5,18.5C 20.5321,7.80122 26.8654,1.46789 37.5,-0.5 Z M 38.5,8.5 C 50.1253,9.93063 54.9586,16.264 53,27.5C 51.1667,30.6667 48.6667,33.1667 45.5,35C 37.8117,35.1685 30.1451,35.6685 22.5,36.5C 23.8333,38.8333 25.1667,41.1667 26.5,43.5C 29.5,44.1667 32.5,44.8333 35.5,45.5C 27.0386,57.4083 18.5386,57.4083 10,45.5C 8.26394,37.8094 10.7639,31.976 17.5,28C 25.1883,27.8315 32.8549,27.3315 40.5,26.5C 39.1667,24.1667 37.8333,21.8333 36.5,19.5C 33.5535,18.6786 30.5535,18.1786 27.5,18C 29.6231,12.9532 33.2897,9.78654 38.5,8.5 Z"/></g>
<g><path style="opacity:0.879" fill="#faf9f5" d="M 213.5,7.5 C 215.402,10.3373 216.069,13.6707 215.5,17.5C 217.833,17.5 220.167,17.5 222.5,17.5C 222.5,19.8333 222.5,22.1667 222.5,24.5C 220.167,24.5 217.833,24.5 215.5,24.5C 215.334,28.5138 215.501,32.5138 216,36.5C 218.245,38.7916 220.745,39.125 223.5,37.5C 223.5,39.8333 223.5,42.1667 223.5,44.5C 217.951,46.5922 213.118,45.5922 209,41.5C 207.649,35.9284 207.149,30.2617 207.5,24.5C 205.5,24.5 203.5,24.5 201.5,24.5C 201.993,22.1944 202.326,19.861 202.5,17.5C 204.167,17.5 205.833,17.5 207.5,17.5C 207.337,15.1432 207.503,12.8098 208,10.5C 209.876,9.39127 211.709,8.39127 213.5,7.5 Z"/></g>
<g><path style="opacity:0.888" fill="#faf9f5" d="M 231.5,7.5 C 233.268,11.0442 234.102,15.0442 234,19.5C 239.807,16.4759 245.141,17.1426 250,21.5C 250.862,23.087 251.529,24.7536 252,26.5C 252.5,32.8246 252.666,39.1579 252.5,45.5C 249.833,45.5 247.167,45.5 244.5,45.5C 244.666,39.8236 244.499,34.1569 244,28.5C 241.163,23.6708 237.829,23.3375 234,27.5C 233.501,33.4908 233.334,39.4908 233.5,45.5C 230.833,45.5 228.167,45.5 225.5,45.5C 225.333,33.8286 225.5,22.1619 226,10.5C 228.058,9.77092 229.891,8.77092 231.5,7.5 Z"/></g>
<g><path style="opacity:0.856" fill="#faf9f5" d="M 285.5,31.5 C 285.5,33.1667 285.5,34.8333 285.5,36.5C 279.412,47.0958 271.912,48.0958 263,39.5C 260.786,34.017 261.619,29.017 265.5,24.5C 261.906,15.9218 264.572,10.5885 273.5,8.5C 282.532,10.5643 285.199,15.8976 281.5,24.5C 283.127,26.7654 284.461,29.0987 285.5,31.5 Z M 271.5,15.5 C 276.159,15.0146 277.492,16.848 275.5,21C 270.728,21.8104 269.395,19.9771 271.5,15.5 Z M 273.5,28.5 C 280.143,31.9047 280.143,35.2381 273.5,38.5C 268.766,37.3661 267.599,34.6994 270,30.5C 271.302,29.9152 272.469,29.2485 273.5,28.5 Z"/></g>
<g><path style="opacity:0.881" fill="#faf9f5" d="M 90.5,17.5 C 96.1667,17.5 101.833,17.5 107.5,17.5C 107.105,24.0859 106.939,30.7526 107,37.5C 106.215,39.286 105.049,40.786 103.5,42C 105.333,42.5 106.5,43.6667 107,45.5C 109.299,52.7364 107.132,57.9031 100.5,61C 94.6208,62.2227 89.1208,61.3893 84,58.5C 81.9937,55.4642 81.1604,52.1309 81.5,48.5C 83.8333,48.5 86.1667,48.5 88.5,48.5C 89.6946,54.4539 93.0279,55.9539 98.5,53C 101.341,49.8412 100.674,47.5078 96.5,46C 83.3002,45.1427 78.1336,38.3094 81,25.5C 83.1608,21.4952 86.3275,18.8286 90.5,17.5 Z M 90.5,24.5 C 96.5184,23.1909 100.185,25.5243 101.5,31.5C 98.7064,38.954 94.2064,40.2873 88,35.5C 85.8269,31.1793 86.6602,27.5126 90.5,24.5 Z"/></g>
<g><path style="opacity:0.861" fill="#faf9f5" d="M 122.5,17.5 C 125.607,17.3512 128.607,17.8512 131.5,19C 132.572,21.6762 131.905,24.0095 129.5,26C 127.891,26.0706 126.224,25.9039 124.5,25.5C 122.626,25.3898 121.126,26.0564 120,27.5C 118.639,33.4067 118.139,39.4067 118.5,45.5C 115.833,45.5 113.167,45.5 110.5,45.5C 110.5,36.5 110.5,27.5 110.5,18.5C 113.579,18.2601 116.579,18.5934 119.5,19.5C 120.739,19.0576 121.739,18.3909 122.5,17.5 Z"/></g>
<g><path style="opacity:0.862" fill="#faf9f5" d="M 141.5,17.5 C 151.468,16.796 157.135,21.296 158.5,31C 158.453,40.2149 153.786,45.0482 144.5,45.5C 138.769,45.2211 134.603,42.5544 132,37.5C 129.075,27.6882 132.242,21.0215 141.5,17.5 Z M 143.5,24.5 C 150.586,25.3969 152.753,29.0636 150,35.5C 146.545,39.4134 143.045,39.4134 139.5,35.5C 137.382,30.4479 138.715,26.7812 143.5,24.5 Z"/></g>
<g><path style="opacity:0.874" fill="#faf9f5" d="M 156.5,17.5 C 159.5,17.5 162.5,17.5 165.5,17.5C 166.685,22.9032 168.185,28.2365 170,33.5C 171.932,28.5384 173.765,23.5384 175.5,18.5C 177.743,17.5258 180.076,17.1924 182.5,17.5C 183.642,23.093 185.475,28.4263 188,33.5C 189.346,28.4485 190.846,23.4485 192.5,18.5C 195.086,17.52 197.753,17.1866 200.5,17.5C 198.038,26.8857 195.372,36.219 192.5,45.5C 189.552,45.7771 186.719,45.4438 184,44.5C 182.53,39.7574 180.864,35.0907 179,30.5C 177.136,35.0907 175.47,39.7574 174,44.5C 171.205,45.7825 168.372,45.7825 165.5,44.5C 162.295,35.5504 159.295,26.5504 156.5,17.5 Z"/></g>
</svg>
